<mxfile host="app.diagrams.net" agent="Mozilla/5.0 (Windows NT 10.0; Win64; x64) AppleWebKit/537.36 (KHTML, like Gecko) Chrome/131.0.0.0 Safari/537.36" version="25.0.3">
  <diagram name="Pagina-1" id="IN2GnqsbCBUMsIS-wJ98">
    <mxGraphModel dx="1434" dy="746" grid="1" gridSize="10" guides="1" tooltips="1" connect="1" arrows="1" fold="1" page="1" pageScale="1" pageWidth="827" pageHeight="1169" math="0" shadow="0">
      <root>
        <mxCell id="0" />
        <mxCell id="1" parent="0" />
        <mxCell id="YsAKR73XazrwtLxm75Nd-1" value="1" style="rhombus;whiteSpace=wrap;html=1;" vertex="1" parent="1">
          <mxGeometry x="40" y="640" width="80" height="80" as="geometry" />
        </mxCell>
        <mxCell id="YsAKR73XazrwtLxm75Nd-2" value="Start&lt;div&gt;m = 0&lt;/div&gt;" style="whiteSpace=wrap;html=1;shape=mxgraph.basic.octagon2;align=center;verticalAlign=middle;dx=15;" vertex="1" parent="1">
          <mxGeometry x="30" y="470" width="100" height="100" as="geometry" />
        </mxCell>
        <mxCell id="YsAKR73XazrwtLxm75Nd-3" value="" style="endArrow=classic;html=1;rounded=0;" edge="1" parent="1" source="YsAKR73XazrwtLxm75Nd-1" target="YsAKR73XazrwtLxm75Nd-2">
          <mxGeometry width="50" height="50" relative="1" as="geometry">
            <mxPoint x="390" y="410" as="sourcePoint" />
            <mxPoint x="440" y="360" as="targetPoint" />
          </mxGeometry>
        </mxCell>
        <mxCell id="YsAKR73XazrwtLxm75Nd-4" value="v_graph&lt;div&gt;T = |V|&lt;/div&gt;" style="ellipse;whiteSpace=wrap;html=1;aspect=fixed;" vertex="1" parent="1">
          <mxGeometry x="300" y="390" width="80" height="80" as="geometry" />
        </mxCell>
        <mxCell id="YsAKR73XazrwtLxm75Nd-5" value="" style="endArrow=classic;html=1;rounded=0;curved=1;" edge="1" parent="1" source="YsAKR73XazrwtLxm75Nd-2" target="YsAKR73XazrwtLxm75Nd-4">
          <mxGeometry width="50" height="50" relative="1" as="geometry">
            <mxPoint x="390" y="410" as="sourcePoint" />
            <mxPoint x="440" y="360" as="targetPoint" />
            <Array as="points">
              <mxPoint x="210" y="450" />
            </Array>
          </mxGeometry>
        </mxCell>
        <mxCell id="YsAKR73XazrwtLxm75Nd-6" value="" style="endArrow=classic;html=1;rounded=0;curved=1;" edge="1" parent="1" source="YsAKR73XazrwtLxm75Nd-4" target="YsAKR73XazrwtLxm75Nd-2">
          <mxGeometry width="50" height="50" relative="1" as="geometry">
            <mxPoint x="390" y="410" as="sourcePoint" />
            <mxPoint x="440" y="360" as="targetPoint" />
            <Array as="points">
              <mxPoint x="230" y="500" />
            </Array>
          </mxGeometry>
        </mxCell>
      </root>
    </mxGraphModel>
  </diagram>
</mxfile>
